<?xml version="1.0" encoding="UTF-8"?>
<svg id="Camada_1" xmlns="http://www.w3.org/2000/svg" version="1.1" viewBox="0 0 433.14 138.45">
  <!-- Generator: Adobe Illustrator 29.4.0, SVG Export Plug-In . SVG Version: 2.1.0 Build 152)  -->
  <defs>
    <style>
      .st0 {
        fill: #243d8d;
      }
    </style>
  </defs>
  <path class="st0" d="M143.1,98.69c-.82-.46-1.73-.83-2.73-1.12-1-.28-1.99-.54-2.98-.77-.99-.23-1.9-.49-2.72-.77-.82-.29-1.49-.67-2.01-1.15-.51-.49-.77-1.13-.77-1.94,0-.68.19-1.3.58-1.85.38-.55.99-.99,1.83-1.32.83-.33,1.9-.49,3.2-.49,1.03,0,2.1.15,3.2.44,1.1.3,2.14.77,3.13,1.43l1.09-2.63c-.97-.66-2.11-1.16-3.43-1.51-1.32-.35-2.65-.53-3.98-.53-2.02,0-3.69.3-4.99.91s-2.27,1.4-2.9,2.4c-.63,1-.94,2.09-.94,3.28s.25,2.23.76,3.01c.5.78,1.17,1.4,1.99,1.86.82.46,1.73.84,2.73,1.14,1,.3,1.99.55,2.98.77.99.22,1.9.48,2.72.77.82.29,1.49.69,2.01,1.17.51.48.77,1.12.77,1.91,0,.68-.2,1.29-.6,1.83-.39.54-1.01.96-1.84,1.27-.83.31-1.92.46-3.26.46-1.47,0-2.89-.25-4.25-.76-1.36-.5-2.48-1.14-3.36-1.91l-1.22,2.57c.92.86,2.18,1.55,3.79,2.09,1.6.54,3.28.81,5.04.81,2.02,0,3.69-.3,5.02-.91,1.33-.6,2.31-1.4,2.95-2.4.64-1,.96-2.08.96-3.24s-.25-2.2-.76-2.96c-.5-.77-1.17-1.38-1.99-1.84Z"/>
  <path class="st0" d="M184.65,89.81c-1.1-1.06-2.39-1.89-3.89-2.47-1.49-.58-3.12-.87-4.88-.87s-3.41.3-4.91.89c-1.5.59-2.79,1.42-3.89,2.49-1.1,1.06-1.96,2.31-2.57,3.74-.61,1.43-.92,2.99-.92,4.68s.31,3.25.92,4.68c.61,1.43,1.47,2.68,2.57,3.74,1.1,1.06,2.4,1.89,3.9,2.49,1.5.59,3.13.89,4.89.89s3.38-.29,4.88-.87c1.49-.58,2.79-1.4,3.89-2.47,1.1-1.06,1.95-2.31,2.55-3.74.61-1.43.91-3,.91-4.71s-.3-3.25-.91-4.69c-.6-1.44-1.45-2.69-2.55-3.76ZM184.14,101.78c-.45,1.07-1.08,2.02-1.88,2.82s-1.75,1.42-2.83,1.86c-1.09.44-2.28.66-3.57.66s-2.45-.22-3.54-.66c-1.09-.44-2.04-1.06-2.85-1.86s-1.44-1.74-1.89-2.82c-.45-1.07-.68-2.25-.68-3.52s.23-2.44.68-3.51c.45-1.07,1.08-2.01,1.89-2.82s1.76-1.44,2.85-1.88c1.09-.44,2.27-.66,3.54-.66s2.49.22,3.57.66c1.09.44,2.03,1.07,2.83,1.88s1.43,1.75,1.88,2.82c.45,1.06.68,2.23.68,3.51s-.23,2.45-.68,3.52Z"/>
  <polygon class="st0" points="207.97 109.79 211.27 109.79 211.27 100.46 222.83 100.46 222.83 97.63 211.27 97.63 211.27 89.59 224.24 89.59 224.24 86.73 207.97 86.73 207.97 109.79"/>
  <polygon class="st0" points="240.55 89.59 248.45 89.59 248.45 109.79 251.71 109.79 251.71 89.59 259.62 89.59 259.62 86.73 240.55 86.73 240.55 89.59"/>
  <polygon class="st0" points="300.86 105.57 294.5 86.73 291.47 86.73 285 105.48 278.76 86.73 275.36 86.73 283.07 109.79 286.59 109.79 292.9 91.36 299.18 109.79 302.63 109.79 310.34 86.73 307.21 86.73 300.86 105.57"/>
  <path class="st0" d="M335.41,86.73l-10.44,23.06h3.39l2.53-5.76h12.26l2.53,5.76h3.46l-10.48-23.06h-3.26ZM332.05,101.39l4.97-11.31,4.97,11.31h-9.94Z"/>
  <path class="st0" d="M381.56,101.81c1.43-.64,2.53-1.55,3.29-2.75.77-1.2,1.15-2.63,1.15-4.3,0-2.53-.86-4.5-2.57-5.91-1.71-1.42-4.06-2.13-7.05-2.13h-8.99v23.06h3.29v-7.01h5.7c.51,0,1-.02,1.46-.06l4.96,7.08h3.59l-5.48-7.73c.21-.08.44-.15.64-.24ZM376.29,99.97h-5.6v-10.38h5.6c2.11,0,3.71.45,4.79,1.35,1.09.9,1.63,2.17,1.63,3.82s-.54,2.92-1.63,3.84c-1.09.91-2.68,1.37-4.79,1.37Z"/>
  <polygon class="st0" points="409.45 99.48 421.02 99.48 421.02 96.68 409.45 96.68 409.45 89.59 422.43 89.59 422.43 86.73 406.16 86.73 406.16 109.79 422.89 109.79 422.89 106.92 409.45 106.92 409.45 99.48"/>
  <polygon class="st0" points="128.1 67.35 135.23 67.35 135.23 52.59 153.77 52.59 153.77 46.67 135.23 46.67 135.23 34.98 156.13 34.98 156.13 28.94 128.1 28.94 128.1 67.35"/>
  <path class="st0" d="M198.57,54.51c2.43-1.1,4.31-2.65,5.63-4.66,1.32-2.01,1.97-4.42,1.97-7.24,0-4.24-1.45-7.58-4.36-10.01-2.91-2.43-6.92-3.65-12.04-3.65h-15.75v38.41h7.13v-11.19h8.67c.51,0,.99-.04,1.48-.06l7.84,11.26h7.68l-8.84-12.62c.19-.08.4-.14.58-.22ZM196.6,36.98c1.59,1.34,2.39,3.21,2.39,5.62s-.8,4.3-2.39,5.65c-1.59,1.35-3.96,2.03-7.11,2.03h-8.34v-15.31h8.34c3.15,0,5.51.67,7.11,2Z"/>
  <polygon class="st0" points="253.9 61.32 232.23 61.32 232.23 50.78 250.78 50.78 250.78 44.91 232.23 44.91 232.23 34.98 253.14 34.98 253.14 28.94 225.1 28.94 225.1 67.35 253.9 67.35 253.9 61.32"/>
  <rect class="st0" x="272.83" y="28.94" width="7.13" height="38.41"/>
  <polygon class="st0" points="328.96 28.94 296.37 28.94 296.37 34.98 309.1 34.98 309.1 67.35 316.23 67.35 316.23 34.98 328.96 34.98 328.96 28.94"/>
  <path class="st0" d="M349.07,58.46h19.21l3.8,8.89h7.52l-17.34-38.41h-7.02l-17.28,38.41h7.3l3.82-8.89ZM358.7,36.06l7.19,16.81h-14.41l7.22-16.81Z"/>
  <path class="st0" d="M416.09,66.34c2.3-1.04,4.02-2.43,5.13-4.17,1.12-1.73,1.67-3.63,1.67-5.68s-.41-3.67-1.23-4.97c-.82-1.3-1.91-2.34-3.27-3.13-1.35-.78-2.83-1.43-4.44-1.92-1.61-.49-3.24-.92-4.88-1.29s-3.14-.75-4.47-1.15c-1.34-.4-2.42-.96-3.24-1.67-.82-.71-1.23-1.66-1.23-2.83,0-.95.28-1.82.85-2.61.57-.79,1.47-1.42,2.72-1.89,1.24-.48,2.83-.72,4.77-.72,1.68,0,3.44.25,5.27.74,1.83.49,3.6,1.25,5.32,2.28l2.25-5.54c-1.68-1.1-3.66-1.94-5.93-2.52-2.27-.59-4.55-.88-6.86-.88-3.51,0-6.41.52-8.7,1.57-2.29,1.04-3.99,2.43-5.1,4.17s-1.67,3.65-1.67,5.73.41,3.73,1.23,5.05c.82,1.32,1.91,2.37,3.26,3.15,1.35.79,2.84,1.44,4.47,1.95,1.63.51,3.26.94,4.88,1.29,1.63.35,3.11.73,4.44,1.15,1.33.42,2.42.99,3.26,1.7.84.71,1.26,1.66,1.26,2.83,0,.95-.29,1.8-.88,2.55-.59.75-1.5,1.35-2.74,1.78-1.24.44-2.87.66-4.88.66-2.38,0-4.7-.4-6.97-1.21-2.27-.8-4.17-1.81-5.71-3.02l-2.47,5.54c1.64,1.35,3.83,2.46,6.56,3.32s5.59,1.29,8.59,1.29c3.51,0,6.42-.52,8.72-1.56Z"/>
  <path class="st0" d="M91.74,19.18L35.72,3.55c-3.92-1.09-7.98,1.2-9.08,5.12l-14.99,53.71c-.1.37-.17.74-.25,1.12-.2.71-.34,1.45-.49,2.18-.04.19-.07.37-.11.56-.18,1-.32,2.02-.4,3.06,0,0,0,0,0,0h0c-.07.87-.16,1.73-.16,2.62,0,4.77.75,8.74,2.26,11.93,1.51,3.19,3.5,5.76,5.97,7.71,2.48,1.96,5.2,3.53,8.19,4.72,2.97,1.19,5.94,2.15,8.88,2.87,2.95.72,5.65,1.4,8.13,2.04,2.48.64,4.47,1.42,5.98,2.36,1.51.94,2.26,2.22,2.26,3.83,0,1.02-.32,1.89-.97,2.61-.64.73-1.67,1.27-3.07,1.66-1.4.38-3.32.57-5.76.57-4.16,0-8.45-.74-12.86-2.23-1.34-.45-2.64-.95-3.91-1.49-1.15-.49-2.35-.73-3.52-.73-3.47,0-6.73,2.05-8.03,5.53l-2.17,5.82c-1.57,4.21.33,8.99,4.45,10.81,2.28,1.01,4.79,1.91,7.52,2.7,5.88,1.7,11.99,2.55,18.31,2.55,7.82,0,14.31-1.38,19.49-4.14,5.17-2.76,9.06-6.41,11.68-10.96,2.62-4.55,3.93-9.54,3.93-14.98,0-4.67-.75-8.59-2.26-11.73-1.51-3.15-3.5-5.69-5.97-7.65-2.48-1.95-5.19-3.52-8.13-4.72-2.95-1.19-5.9-2.12-8.88-2.81-2.98-.68-5.71-1.32-8.18-1.91-2.48-.6-4.47-1.34-5.98-2.23-1.51-.89-2.26-2.11-2.26-3.63,0-.2.07-.38.09-.57l.38-1.38c.13-.29.25-.59.44-.86.53-.74,1.4-1.35,2.57-1.83.17-.07.32-.14.5-.21.36-.13.75-.24,1.17-.34,1.27-.29,2.81-.43,4.64-.43,3.3,0,6.69.55,10.17,1.66.95.3,1.91.65,2.88,1.03.9.36,1.8.74,2.71,1.17,2.84,1.33,6.22-.07,7.26-3.03l4.43-12.63c.73-2.09-.24-4.35-2.19-5.39-1.06-.56-2.18-1.03-3.3-1.51-.24-.12-.46-.27-.71-.37-.17-.07-.35-.13-.53-.19-.24-.09-.49-.18-.73-.27-1.52-.57-3.08-1.08-4.7-1.5,0,0,0,0-.01,0-3.72-.96-7.47-1.55-11.26-1.79-1.27-.08-2.53-.12-3.81-.12-.74,0-1.42.07-2.14.1l4.19-15.01,39.13,10.92c1.8.5,3.67-.55,4.17-2.35l3.39-12.13c.5-1.8-.55-3.67-2.35-4.17ZM42.33,81.44c2.49.6,5.24,1.24,8.23,1.92,2.68.62,5.4,1.48,8.07,2.55,2.47,1,4.77,2.34,6.83,3.96,1.85,1.46,3.31,3.35,4.47,5.78,1.15,2.41,1.74,5.58,1.74,9.43,0,4.53-1.05,8.57-3.22,12.33-2.13,3.7-5.26,6.62-9.58,8.93-4.36,2.33-10.08,3.51-16.98,3.51-5.79,0-11.45-.79-16.83-2.34-2.49-.72-4.79-1.54-6.85-2.45-1.51-.67-2.21-2.46-1.61-4.08l2.17-5.82c.57-1.52,1.99-2.06,3.04-2.06.48,0,.96.1,1.42.3,1.39.6,2.84,1.15,4.3,1.64,4.94,1.67,9.84,2.51,14.57,2.51,2.94,0,5.29-.25,7.18-.77,2.44-.68,4.28-1.74,5.6-3.23,1.53-1.7,2.34-3.83,2.34-6.18,0-3.47-1.7-6.44-4.78-8.35-1.98-1.23-4.41-2.2-7.46-2.99-2.49-.64-5.22-1.33-8.18-2.05-2.44-.6-4.95-1.42-7.46-2.39l3.95-14.14c.48.42,1,.81,1.59,1.16,1.99,1.18,4.42,2.1,7.45,2.83Z"/>
</svg>