<svg xmlns="http://www.w3.org/2000/svg" xmlns:xlink="http://www.w3.org/1999/xlink" width="500" zoomAndPan="magnify" viewBox="0 0 375 374.999991" height="500" preserveAspectRatio="xMidYMid meet" version="1.2"><defs><clipPath id="deef5b09f1"><path d="M 54 141.570312 L 128.933594 141.570312 L 128.933594 220.320312 L 54 220.320312 Z M 54 141.570312 "/></clipPath><clipPath id="d20cf9e67c"><path d="M 96.945312 178.179688 L 63.523438 178.179688 C 62.230469 178.179688 61.289062 176.945312 61.640625 175.695312 L 70.816406 143 C 71.050781 142.15625 71.824219 141.570312 72.699219 141.570312 L 106.117188 141.570312 C 107.414062 141.570312 108.351562 142.808594 108.003906 144.058594 L 98.828125 176.753906 C 98.589844 177.597656 97.820312 178.179688 96.945312 178.179688 Z M 75.238281 202.863281 L 79.960938 186.027344 C 80.3125 184.777344 79.375 183.542969 78.078125 183.542969 L 60.898438 183.542969 C 60.023438 183.542969 59.253906 184.125 59.015625 184.96875 L 54.292969 201.804688 C 53.941406 203.054688 54.878906 204.289062 56.175781 204.289062 L 73.355469 204.289062 C 74.230469 204.289062 75 203.707031 75.238281 202.863281 Z M 83.929688 184.96875 L 74.757812 217.667969 C 74.40625 218.914062 75.34375 220.152344 76.640625 220.152344 L 110.058594 220.152344 C 110.9375 220.152344 111.707031 219.566406 111.941406 218.722656 L 121.117188 186.027344 C 121.46875 184.777344 120.53125 183.542969 119.234375 183.542969 L 85.816406 183.542969 C 84.9375 183.542969 84.167969 184.125 83.929688 184.96875 Z M 107.519531 158.859375 L 102.796875 175.695312 C 102.445312 176.945312 103.382812 178.179688 104.679688 178.179688 L 121.859375 178.179688 C 122.738281 178.179688 123.507812 177.597656 123.742188 176.753906 L 128.46875 159.917969 C 128.816406 158.671875 127.878906 157.433594 126.582031 157.433594 L 109.40625 157.433594 C 108.527344 157.433594 107.757812 158.015625 107.519531 158.859375 Z M 107.519531 158.859375 "/></clipPath><linearGradient x1="114.296427" gradientTransform="matrix(0.15716,0,0,0.15716,54.217155,141.571657)" y1="-47.634007" x2="358.621823" gradientUnits="userSpaceOnUse" y2="547.633954" id="8ea9812fb6"><stop style="stop-color:#1800ad;stop-opacity:1;" offset="0"/><stop style="stop-color:#1800ad;stop-opacity:1;" offset="0.0625"/><stop style="stop-color:#1800ad;stop-opacity:1;" offset="0.09375"/><stop style="stop-color:#1802ae;stop-opacity:1;" offset="0.0976563"/><stop style="stop-color:#1803ae;stop-opacity:1;" offset="0.101563"/><stop style="stop-color:#1904af;stop-opacity:1;" offset="0.105469"/><stop style="stop-color:#1905af;stop-opacity:1;" offset="0.109375"/><stop style="stop-color:#1906af;stop-opacity:1;" offset="0.113281"/><stop style="stop-color:#1906b0;stop-opacity:1;" offset="0.117188"/><stop style="stop-color:#1907b0;stop-opacity:1;" offset="0.121094"/><stop style="stop-color:#1908b1;stop-opacity:1;" offset="0.125"/><stop style="stop-color:#1a09b1;stop-opacity:1;" offset="0.128906"/><stop style="stop-color:#1a0ab2;stop-opacity:1;" offset="0.132813"/><stop style="stop-color:#1a0bb2;stop-opacity:1;" offset="0.136719"/><stop style="stop-color:#1a0cb2;stop-opacity:1;" offset="0.140625"/><stop style="stop-color:#1a0db3;stop-opacity:1;" offset="0.144531"/><stop style="stop-color:#1a0eb3;stop-opacity:1;" offset="0.148438"/><stop style="stop-color:#1b0fb4;stop-opacity:1;" offset="0.152344"/><stop style="stop-color:#1b10b4;stop-opacity:1;" offset="0.15625"/><stop style="stop-color:#1b11b5;stop-opacity:1;" offset="0.160156"/><stop style="stop-color:#1b12b5;stop-opacity:1;" offset="0.164062"/><stop style="stop-color:#1b13b6;stop-opacity:1;" offset="0.167969"/><stop style="stop-color:#1b14b6;stop-opacity:1;" offset="0.171875"/><stop style="stop-color:#1c15b6;stop-opacity:1;" offset="0.175781"/><stop style="stop-color:#1c16b7;stop-opacity:1;" offset="0.179688"/><stop style="stop-color:#1c17b7;stop-opacity:1;" offset="0.183594"/><stop style="stop-color:#1c18b8;stop-opacity:1;" offset="0.1875"/><stop style="stop-color:#1c19b8;stop-opacity:1;" offset="0.191406"/><stop style="stop-color:#1d1ab9;stop-opacity:1;" offset="0.195313"/><stop style="stop-color:#1d1bb9;stop-opacity:1;" offset="0.199219"/><stop style="stop-color:#1d1cb9;stop-opacity:1;" offset="0.203125"/><stop style="stop-color:#1d1dba;stop-opacity:1;" offset="0.207031"/><stop style="stop-color:#1d1dba;stop-opacity:1;" offset="0.210938"/><stop style="stop-color:#1d1ebb;stop-opacity:1;" offset="0.214844"/><stop style="stop-color:#1e1fbb;stop-opacity:1;" offset="0.21875"/><stop style="stop-color:#1e20bc;stop-opacity:1;" offset="0.222656"/><stop style="stop-color:#1e21bc;stop-opacity:1;" offset="0.226563"/><stop style="stop-color:#1e22bc;stop-opacity:1;" offset="0.230469"/><stop style="stop-color:#1e23bd;stop-opacity:1;" offset="0.234375"/><stop style="stop-color:#1e24bd;stop-opacity:1;" offset="0.238281"/><stop style="stop-color:#1f25be;stop-opacity:1;" offset="0.242188"/><stop style="stop-color:#1f26be;stop-opacity:1;" offset="0.246094"/><stop style="stop-color:#1f27bf;stop-opacity:1;" offset="0.25"/><stop style="stop-color:#1f28bf;stop-opacity:1;" offset="0.253906"/><stop style="stop-color:#1f29bf;stop-opacity:1;" offset="0.257813"/><stop style="stop-color:#1f2ac0;stop-opacity:1;" offset="0.261719"/><stop style="stop-color:#202bc0;stop-opacity:1;" offset="0.265625"/><stop style="stop-color:#202cc1;stop-opacity:1;" offset="0.269531"/><stop style="stop-color:#202dc1;stop-opacity:1;" offset="0.273438"/><stop style="stop-color:#202ec2;stop-opacity:1;" offset="0.277344"/><stop style="stop-color:#202fc2;stop-opacity:1;" offset="0.28125"/><stop style="stop-color:#2030c2;stop-opacity:1;" offset="0.285156"/><stop style="stop-color:#2131c3;stop-opacity:1;" offset="0.289063"/><stop style="stop-color:#2132c3;stop-opacity:1;" offset="0.292969"/><stop style="stop-color:#2133c4;stop-opacity:1;" offset="0.296875"/><stop style="stop-color:#2134c4;stop-opacity:1;" offset="0.300781"/><stop style="stop-color:#2135c5;stop-opacity:1;" offset="0.304688"/><stop style="stop-color:#2135c5;stop-opacity:1;" offset="0.308594"/><stop style="stop-color:#2236c6;stop-opacity:1;" offset="0.3125"/><stop style="stop-color:#2237c6;stop-opacity:1;" offset="0.316406"/><stop style="stop-color:#2238c6;stop-opacity:1;" offset="0.320312"/><stop style="stop-color:#2239c7;stop-opacity:1;" offset="0.324219"/><stop style="stop-color:#223ac7;stop-opacity:1;" offset="0.328125"/><stop style="stop-color:#223bc8;stop-opacity:1;" offset="0.332031"/><stop style="stop-color:#233cc8;stop-opacity:1;" offset="0.335938"/><stop style="stop-color:#233dc9;stop-opacity:1;" offset="0.339844"/><stop style="stop-color:#233ec9;stop-opacity:1;" offset="0.34375"/><stop style="stop-color:#233fc9;stop-opacity:1;" offset="0.347656"/><stop style="stop-color:#2340ca;stop-opacity:1;" offset="0.351562"/><stop style="stop-color:#2341ca;stop-opacity:1;" offset="0.355469"/><stop style="stop-color:#2442cb;stop-opacity:1;" offset="0.359375"/><stop style="stop-color:#2443cb;stop-opacity:1;" offset="0.363281"/><stop style="stop-color:#2444cc;stop-opacity:1;" offset="0.367188"/><stop style="stop-color:#2445cc;stop-opacity:1;" offset="0.371094"/><stop style="stop-color:#2446cc;stop-opacity:1;" offset="0.375"/><stop style="stop-color:#2447cd;stop-opacity:1;" offset="0.378906"/><stop style="stop-color:#2548cd;stop-opacity:1;" offset="0.382812"/><stop style="stop-color:#2549ce;stop-opacity:1;" offset="0.386719"/><stop style="stop-color:#254ace;stop-opacity:1;" offset="0.390625"/><stop style="stop-color:#254bcf;stop-opacity:1;" offset="0.394531"/><stop style="stop-color:#254ccf;stop-opacity:1;" offset="0.398438"/><stop style="stop-color:#254ccf;stop-opacity:1;" offset="0.402344"/><stop style="stop-color:#264dd0;stop-opacity:1;" offset="0.40625"/><stop style="stop-color:#264ed0;stop-opacity:1;" offset="0.410156"/><stop style="stop-color:#264fd1;stop-opacity:1;" offset="0.414063"/><stop style="stop-color:#2650d1;stop-opacity:1;" offset="0.417969"/><stop style="stop-color:#2651d2;stop-opacity:1;" offset="0.421875"/><stop style="stop-color:#2652d2;stop-opacity:1;" offset="0.425781"/><stop style="stop-color:#2753d2;stop-opacity:1;" offset="0.429688"/><stop style="stop-color:#2754d3;stop-opacity:1;" offset="0.433594"/><stop style="stop-color:#2755d3;stop-opacity:1;" offset="0.4375"/><stop style="stop-color:#2756d4;stop-opacity:1;" offset="0.441406"/><stop style="stop-color:#2757d4;stop-opacity:1;" offset="0.445313"/><stop style="stop-color:#2758d5;stop-opacity:1;" offset="0.449219"/><stop style="stop-color:#2859d5;stop-opacity:1;" offset="0.453125"/><stop style="stop-color:#285ad6;stop-opacity:1;" offset="0.457031"/><stop style="stop-color:#285bd6;stop-opacity:1;" offset="0.460938"/><stop style="stop-color:#285cd6;stop-opacity:1;" offset="0.464844"/><stop style="stop-color:#285dd7;stop-opacity:1;" offset="0.46875"/><stop style="stop-color:#285ed7;stop-opacity:1;" offset="0.472656"/><stop style="stop-color:#295fd8;stop-opacity:1;" offset="0.476563"/><stop style="stop-color:#2960d8;stop-opacity:1;" offset="0.480469"/><stop style="stop-color:#2961d9;stop-opacity:1;" offset="0.484375"/><stop style="stop-color:#2962d9;stop-opacity:1;" offset="0.488281"/><stop style="stop-color:#2963d9;stop-opacity:1;" offset="0.492188"/><stop style="stop-color:#2964da;stop-opacity:1;" offset="0.496094"/><stop style="stop-color:#2a64da;stop-opacity:1;" offset="0.5"/><stop style="stop-color:#2a65db;stop-opacity:1;" offset="0.503906"/><stop style="stop-color:#2a66db;stop-opacity:1;" offset="0.507813"/><stop style="stop-color:#2a67dc;stop-opacity:1;" offset="0.511719"/><stop style="stop-color:#2a68dc;stop-opacity:1;" offset="0.515625"/><stop style="stop-color:#2b69dc;stop-opacity:1;" offset="0.519531"/><stop style="stop-color:#2b6add;stop-opacity:1;" offset="0.523438"/><stop style="stop-color:#2b6bdd;stop-opacity:1;" offset="0.527344"/><stop style="stop-color:#2b6cde;stop-opacity:1;" offset="0.53125"/><stop style="stop-color:#2b6dde;stop-opacity:1;" offset="0.535156"/><stop style="stop-color:#2b6edf;stop-opacity:1;" offset="0.539063"/><stop style="stop-color:#2c6fdf;stop-opacity:1;" offset="0.542969"/><stop style="stop-color:#2c70df;stop-opacity:1;" offset="0.546875"/><stop style="stop-color:#2c71e0;stop-opacity:1;" offset="0.550781"/><stop style="stop-color:#2c72e0;stop-opacity:1;" offset="0.554688"/><stop style="stop-color:#2c73e1;stop-opacity:1;" offset="0.558594"/><stop style="stop-color:#2c74e1;stop-opacity:1;" offset="0.5625"/><stop style="stop-color:#2d75e2;stop-opacity:1;" offset="0.566406"/><stop style="stop-color:#2d76e2;stop-opacity:1;" offset="0.570313"/><stop style="stop-color:#2d77e2;stop-opacity:1;" offset="0.574219"/><stop style="stop-color:#2d78e3;stop-opacity:1;" offset="0.578125"/><stop style="stop-color:#2d79e3;stop-opacity:1;" offset="0.582031"/><stop style="stop-color:#2d7ae4;stop-opacity:1;" offset="0.585938"/><stop style="stop-color:#2e7be4;stop-opacity:1;" offset="0.589844"/><stop style="stop-color:#2e7be5;stop-opacity:1;" offset="0.59375"/><stop style="stop-color:#2e7ce5;stop-opacity:1;" offset="0.597656"/><stop style="stop-color:#2e7de5;stop-opacity:1;" offset="0.601563"/><stop style="stop-color:#2e7ee6;stop-opacity:1;" offset="0.605469"/><stop style="stop-color:#2e7fe6;stop-opacity:1;" offset="0.609375"/><stop style="stop-color:#2f80e7;stop-opacity:1;" offset="0.613281"/><stop style="stop-color:#2f81e7;stop-opacity:1;" offset="0.617188"/><stop style="stop-color:#2f82e8;stop-opacity:1;" offset="0.621094"/><stop style="stop-color:#2f83e8;stop-opacity:1;" offset="0.625"/><stop style="stop-color:#2f84e9;stop-opacity:1;" offset="0.628906"/><stop style="stop-color:#2f85e9;stop-opacity:1;" offset="0.632813"/><stop style="stop-color:#3086e9;stop-opacity:1;" offset="0.636719"/><stop style="stop-color:#3087ea;stop-opacity:1;" offset="0.640625"/><stop style="stop-color:#3088ea;stop-opacity:1;" offset="0.644531"/><stop style="stop-color:#3089eb;stop-opacity:1;" offset="0.648438"/><stop style="stop-color:#308aeb;stop-opacity:1;" offset="0.652344"/><stop style="stop-color:#308bec;stop-opacity:1;" offset="0.65625"/><stop style="stop-color:#318cec;stop-opacity:1;" offset="0.660156"/><stop style="stop-color:#318dec;stop-opacity:1;" offset="0.664063"/><stop style="stop-color:#318eed;stop-opacity:1;" offset="0.667969"/><stop style="stop-color:#318fed;stop-opacity:1;" offset="0.671875"/><stop style="stop-color:#3190ee;stop-opacity:1;" offset="0.675781"/><stop style="stop-color:#3191ee;stop-opacity:1;" offset="0.679688"/><stop style="stop-color:#3292ef;stop-opacity:1;" offset="0.683594"/><stop style="stop-color:#3292ef;stop-opacity:1;" offset="0.6875"/><stop style="stop-color:#3293ef;stop-opacity:1;" offset="0.691406"/><stop style="stop-color:#3294f0;stop-opacity:1;" offset="0.695313"/><stop style="stop-color:#3295f0;stop-opacity:1;" offset="0.699219"/><stop style="stop-color:#3296f1;stop-opacity:1;" offset="0.703125"/><stop style="stop-color:#3397f1;stop-opacity:1;" offset="0.707031"/><stop style="stop-color:#3398f2;stop-opacity:1;" offset="0.710938"/><stop style="stop-color:#3399f2;stop-opacity:1;" offset="0.714844"/><stop style="stop-color:#339af2;stop-opacity:1;" offset="0.71875"/><stop style="stop-color:#339bf3;stop-opacity:1;" offset="0.722656"/><stop style="stop-color:#339cf3;stop-opacity:1;" offset="0.726563"/><stop style="stop-color:#349df4;stop-opacity:1;" offset="0.730469"/><stop style="stop-color:#349ef4;stop-opacity:1;" offset="0.734375"/><stop style="stop-color:#349ff5;stop-opacity:1;" offset="0.738281"/><stop style="stop-color:#34a0f5;stop-opacity:1;" offset="0.742188"/><stop style="stop-color:#34a1f5;stop-opacity:1;" offset="0.746094"/><stop style="stop-color:#34a2f6;stop-opacity:1;" offset="0.75"/><stop style="stop-color:#35a3f6;stop-opacity:1;" offset="0.753906"/><stop style="stop-color:#35a4f7;stop-opacity:1;" offset="0.757813"/><stop style="stop-color:#35a5f7;stop-opacity:1;" offset="0.761719"/><stop style="stop-color:#35a6f8;stop-opacity:1;" offset="0.765625"/><stop style="stop-color:#35a7f8;stop-opacity:1;" offset="0.769531"/><stop style="stop-color:#35a8f9;stop-opacity:1;" offset="0.773438"/><stop style="stop-color:#36a9f9;stop-opacity:1;" offset="0.777344"/><stop style="stop-color:#36aaf9;stop-opacity:1;" offset="0.78125"/><stop style="stop-color:#36aafa;stop-opacity:1;" offset="0.785156"/><stop style="stop-color:#36abfa;stop-opacity:1;" offset="0.789063"/><stop style="stop-color:#36acfb;stop-opacity:1;" offset="0.792969"/><stop style="stop-color:#36adfb;stop-opacity:1;" offset="0.796875"/><stop style="stop-color:#37aefc;stop-opacity:1;" offset="0.800781"/><stop style="stop-color:#37affc;stop-opacity:1;" offset="0.804688"/><stop style="stop-color:#37b0fc;stop-opacity:1;" offset="0.808594"/><stop style="stop-color:#37b1fd;stop-opacity:1;" offset="0.8125"/><stop style="stop-color:#37b2fd;stop-opacity:1;" offset="0.816406"/><stop style="stop-color:#37b3fe;stop-opacity:1;" offset="0.820313"/><stop style="stop-color:#38b4fe;stop-opacity:1;" offset="0.824219"/><stop style="stop-color:#38b5ff;stop-opacity:1;" offset="0.828125"/><stop style="stop-color:#38b6ff;stop-opacity:1;" offset="0.84375"/><stop style="stop-color:#38b6ff;stop-opacity:1;" offset="0.875"/><stop style="stop-color:#38b6ff;stop-opacity:1;" offset="1"/></linearGradient></defs><g id="7179e6c041"><g clip-rule="nonzero" clip-path="url(#deef5b09f1)"><g clip-rule="nonzero" clip-path="url(#d20cf9e67c)"><path style=" stroke:none;fill-rule:nonzero;fill:url(#8ea9812fb6);" d="M 53.941406 141.570312 L 53.941406 220.152344 L 128.816406 220.152344 L 128.816406 141.570312 Z M 53.941406 141.570312 "/></g></g><g style="fill:#004aad;fill-opacity:1;"><g transform="translate(130.224123, 194.36511)"><path style="stroke:none" d="M 2.34375 -32.59375 L 29.328125 -32.59375 L 29.328125 -25.9375 L 10.21875 -25.9375 L 10.21875 -19.640625 L 24.671875 -19.640625 L 24.671875 -12.9375 L 10.21875 -12.9375 L 10.21875 0 L 2.34375 0 Z M 2.34375 -32.59375 "/></g></g><g style="fill:#004aad;fill-opacity:1;"><g transform="translate(161.477558, 194.36511)"><path style="stroke:none" d="M 2.34375 -32.59375 L 26.765625 -32.59375 C 28.078125 -32.59375 29.179688 -32.144531 30.078125 -31.25 C 30.972656 -30.351562 31.421875 -29.25 31.421875 -27.9375 L 31.421875 -15.578125 C 31.421875 -14.296875 30.972656 -13.203125 30.078125 -12.296875 C 29.179688 -11.390625 28.078125 -10.9375 26.765625 -10.9375 L 26.4375 -10.9375 L 33.9375 0 L 24.296875 0 L 16.71875 -10.9375 L 10.21875 -10.9375 L 10.21875 0 L 2.34375 0 Z M 10.21875 -17.59375 L 22.328125 -17.59375 C 22.660156 -17.59375 22.9375 -17.695312 23.15625 -17.90625 C 23.382812 -18.113281 23.5 -18.382812 23.5 -18.71875 L 23.5 -24.796875 C 23.5 -25.128906 23.382812 -25.398438 23.15625 -25.609375 C 22.9375 -25.828125 22.660156 -25.9375 22.328125 -25.9375 L 10.21875 -25.9375 Z M 10.21875 -17.59375 "/></g></g><g style="fill:#004aad;fill-opacity:1;"><g transform="translate(197.381276, 194.36511)"><path style="stroke:none" d="M 2.34375 -32.59375 L 29.328125 -32.59375 L 29.328125 -25.9375 L 10.21875 -25.9375 L 10.21875 -19.640625 L 24.671875 -19.640625 L 24.671875 -12.9375 L 10.21875 -12.9375 L 10.21875 -6.65625 L 29.328125 -6.65625 L 29.328125 0 L 2.34375 0 Z M 2.34375 -32.59375 "/></g></g><g style="fill:#004aad;fill-opacity:1;"><g transform="translate(229.640177, 194.36511)"><path style="stroke:none" d="M 2.34375 -32.59375 L 10.21875 -32.59375 L 10.21875 0 L 2.34375 0 Z M 2.34375 -32.59375 "/></g></g><g style="fill:#004aad;fill-opacity:1;"><g transform="translate(243.968236, 194.36511)"><path style="stroke:none" d="M 0.453125 -32.59375 L 29.578125 -32.59375 L 29.578125 -25.9375 L 18.96875 -25.9375 L 18.96875 0 L 11.015625 0 L 11.015625 -25.9375 L 0.453125 -25.9375 Z M 0.453125 -32.59375 "/></g></g><g style="fill:#004aad;fill-opacity:1;"><g transform="translate(275.682514, 194.36511)"><path style="stroke:none" d="M 11.1875 -32.59375 L 23.921875 -32.59375 L 34.6875 0 L 26.4375 0 L 24.34375 -6.15625 L 10.8125 -6.15625 L 8.75 0 L 0.453125 0 Z M 13.03125 -12.8125 L 22.125 -12.8125 L 17.546875 -26.3125 Z M 13.03125 -12.8125 "/></g></g><g style="fill:#004aad;fill-opacity:1;"><g transform="translate(312.507916, 194.36511)"><path style="stroke:none" d="M 7 -32.59375 L 30.5 -32.59375 L 30.5 -25.9375 L 11.390625 -25.9375 C 11.109375 -25.9375 10.84375 -25.820312 10.59375 -25.59375 C 10.34375 -25.375 10.21875 -25.109375 10.21875 -24.796875 L 10.21875 -20.8125 C 10.21875 -20.539062 10.34375 -20.273438 10.59375 -20.015625 C 10.84375 -19.765625 11.109375 -19.640625 11.390625 -19.640625 L 26.765625 -19.640625 C 28.078125 -19.640625 29.179688 -19.191406 30.078125 -18.296875 C 30.972656 -17.410156 31.421875 -16.3125 31.421875 -15 L 31.421875 -4.65625 C 31.421875 -3.363281 30.972656 -2.265625 30.078125 -1.359375 C 29.179688 -0.453125 28.078125 0 26.765625 0 L 3.265625 0 L 3.265625 -6.65625 L 22.328125 -6.65625 C 22.628906 -6.65625 22.898438 -6.773438 23.140625 -7.015625 C 23.378906 -7.253906 23.5 -7.515625 23.5 -7.796875 L 23.5 -11.765625 C 23.5 -12.078125 23.378906 -12.347656 23.140625 -12.578125 C 22.898438 -12.816406 22.628906 -12.9375 22.328125 -12.9375 L 7 -12.9375 C 5.707031 -12.9375 4.609375 -13.390625 3.703125 -14.296875 C 2.796875 -15.210938 2.34375 -16.3125 2.34375 -17.59375 L 2.34375 -27.9375 C 2.34375 -29.25 2.796875 -30.351562 3.703125 -31.25 C 4.609375 -32.144531 5.707031 -32.59375 7 -32.59375 Z M 7 -32.59375 "/></g></g><g style="fill:#38b6ff;fill-opacity:1;"><g transform="translate(155.325785, 214.072575)"><path style="stroke:none" d="M 5.140625 0.109375 C 3.867188 0.109375 2.945312 -0.175781 2.375 -0.75 C 1.800781 -1.332031 1.515625 -2.253906 1.515625 -3.515625 L 1.515625 -4.390625 C 1.515625 -4.671875 1.65625 -4.8125 1.9375 -4.8125 L 4.5 -4.8125 C 4.78125 -4.8125 4.921875 -4.671875 4.921875 -4.390625 L 4.921875 -3.78125 C 4.921875 -3.300781 5.019531 -2.960938 5.21875 -2.765625 C 5.414062 -2.578125 5.75 -2.484375 6.21875 -2.484375 L 10 -2.484375 C 10.476562 -2.484375 10.8125 -2.578125 11 -2.765625 C 11.195312 -2.960938 11.296875 -3.300781 11.296875 -3.78125 L 11.296875 -4.96875 C 11.296875 -5.445312 11.195312 -5.78125 11 -5.96875 C 10.8125 -6.164062 10.476562 -6.265625 10 -6.265625 L 5.40625 -6.265625 C 4.132812 -6.265625 3.210938 -6.546875 2.640625 -7.109375 C 2.078125 -7.679688 1.796875 -8.601562 1.796875 -9.875 L 1.796875 -11.625 C 1.796875 -12.894531 2.078125 -13.8125 2.640625 -14.375 C 3.210938 -14.945312 4.132812 -15.234375 5.40625 -15.234375 L 10.4375 -15.234375 C 11.707031 -15.234375 12.625 -14.945312 13.1875 -14.375 C 13.757812 -13.8125 14.046875 -12.894531 14.046875 -11.625 L 14.046875 -10.765625 C 14.046875 -10.472656 13.898438 -10.328125 13.609375 -10.328125 L 11.078125 -10.328125 C 10.796875 -10.328125 10.65625 -10.472656 10.65625 -10.765625 L 10.65625 -11.34375 C 10.65625 -11.820312 10.554688 -12.15625 10.359375 -12.34375 C 10.160156 -12.539062 9.828125 -12.640625 9.359375 -12.640625 L 6.4375 -12.640625 C 5.957031 -12.640625 5.617188 -12.539062 5.421875 -12.34375 C 5.234375 -12.15625 5.140625 -11.820312 5.140625 -11.34375 L 5.140625 -10.15625 C 5.140625 -9.675781 5.234375 -9.335938 5.421875 -9.140625 C 5.617188 -8.953125 5.957031 -8.859375 6.4375 -8.859375 L 11.015625 -8.859375 C 12.285156 -8.859375 13.207031 -8.570312 13.78125 -8 C 14.363281 -7.4375 14.65625 -6.519531 14.65625 -5.25 L 14.65625 -3.515625 C 14.65625 -2.253906 14.367188 -1.332031 13.796875 -0.75 C 13.222656 -0.175781 12.296875 0.109375 11.015625 0.109375 Z M 5.140625 0.109375 "/></g></g><g style="fill:#38b6ff;fill-opacity:1;"><g transform="translate(174.22561, 214.072575)"><path style="stroke:none" d="M 5.578125 0.109375 C 4.273438 0.109375 3.304688 -0.207031 2.671875 -0.84375 C 2.046875 -1.476562 1.734375 -2.441406 1.734375 -3.734375 L 1.734375 -11.40625 C 1.734375 -12.707031 2.046875 -13.671875 2.671875 -14.296875 C 3.304688 -14.921875 4.273438 -15.234375 5.578125 -15.234375 L 11.953125 -15.234375 C 13.242188 -15.234375 14.203125 -14.921875 14.828125 -14.296875 C 15.460938 -13.671875 15.78125 -12.707031 15.78125 -11.40625 L 15.78125 -3.734375 C 15.78125 -2.441406 15.460938 -1.476562 14.828125 -0.84375 C 14.203125 -0.207031 13.242188 0.109375 11.953125 0.109375 Z M 11.015625 -2.765625 C 11.503906 -2.765625 11.859375 -2.875 12.078125 -3.09375 C 12.304688 -3.320312 12.421875 -3.679688 12.421875 -4.171875 L 12.421875 -10.984375 C 12.421875 -11.472656 12.304688 -11.828125 12.078125 -12.046875 C 11.859375 -12.265625 11.503906 -12.375 11.015625 -12.375 L 6.484375 -12.375 C 5.992188 -12.375 5.632812 -12.265625 5.40625 -12.046875 C 5.1875 -11.828125 5.078125 -11.472656 5.078125 -10.984375 L 5.078125 -4.171875 C 5.078125 -3.679688 5.1875 -3.320312 5.40625 -3.09375 C 5.632812 -2.875 5.992188 -2.765625 6.484375 -2.765625 Z M 11.015625 -2.765625 "/></g></g><g style="fill:#38b6ff;fill-opacity:1;"><g transform="translate(194.745265, 214.072575)"><path style="stroke:none" d="M 12.421875 -15.125 C 12.710938 -15.125 12.859375 -14.976562 12.859375 -14.6875 L 12.859375 -12.703125 C 12.859375 -12.421875 12.710938 -12.28125 12.421875 -12.28125 L 5.1875 -12.28125 L 5.1875 -8.75 L 10 -8.75 C 10.289062 -8.75 10.4375 -8.601562 10.4375 -8.3125 L 10.4375 -6.328125 C 10.4375 -6.046875 10.289062 -5.90625 10 -5.90625 L 5.1875 -5.90625 L 5.1875 -0.4375 C 5.1875 -0.144531 5.039062 0 4.75 0 L 2.265625 0 C 1.984375 0 1.84375 -0.144531 1.84375 -0.4375 L 1.84375 -14.6875 C 1.84375 -14.976562 1.984375 -15.125 2.265625 -15.125 Z M 12.421875 -15.125 "/></g></g><g style="fill:#38b6ff;fill-opacity:1;"><g transform="translate(211.161357, 214.072575)"><path style="stroke:none" d="M 13.1875 -15.125 C 13.46875 -15.125 13.609375 -14.976562 13.609375 -14.6875 L 13.609375 -12.53125 C 13.609375 -12.238281 13.46875 -12.09375 13.1875 -12.09375 L 8.53125 -12.09375 L 8.53125 -0.4375 C 8.53125 -0.144531 8.390625 0 8.109375 0 L 5.625 0 C 5.332031 0 5.1875 -0.144531 5.1875 -0.4375 L 5.1875 -12.09375 L 0.546875 -12.09375 C 0.253906 -12.09375 0.109375 -12.238281 0.109375 -12.53125 L 0.109375 -14.6875 C 0.109375 -14.976562 0.253906 -15.125 0.546875 -15.125 Z M 13.1875 -15.125 "/></g></g><g style="fill:#38b6ff;fill-opacity:1;"><g transform="translate(227.901419, 214.072575)"><path style="stroke:none" d="M 4.328125 0 C 4.179688 0 4.066406 -0.0234375 3.984375 -0.078125 C 3.910156 -0.140625 3.847656 -0.25 3.796875 -0.40625 L 0.234375 -14.671875 C 0.222656 -14.710938 0.21875 -14.769531 0.21875 -14.84375 C 0.21875 -15.03125 0.351562 -15.125 0.625 -15.125 L 3.15625 -15.125 C 3.332031 -15.125 3.460938 -15.097656 3.546875 -15.046875 C 3.628906 -14.992188 3.6875 -14.898438 3.71875 -14.765625 L 6.046875 -4.171875 L 6.21875 -4.171875 L 8.84375 -14.734375 C 8.863281 -14.878906 8.914062 -14.976562 9 -15.03125 C 9.082031 -15.09375 9.203125 -15.125 9.359375 -15.125 L 11.796875 -15.125 C 11.953125 -15.125 12.070312 -15.09375 12.15625 -15.03125 C 12.238281 -14.976562 12.289062 -14.878906 12.3125 -14.734375 L 14.9375 -4.171875 L 15.109375 -4.171875 L 16.34375 -9.65625 L 17.484375 -14.71875 C 17.515625 -14.875 17.566406 -14.976562 17.640625 -15.03125 C 17.722656 -15.09375 17.84375 -15.125 18 -15.125 L 20.546875 -15.125 C 20.804688 -15.125 20.9375 -15.023438 20.9375 -14.828125 C 20.9375 -14.753906 20.929688 -14.695312 20.921875 -14.65625 L 17.359375 -0.40625 C 17.304688 -0.25 17.238281 -0.140625 17.15625 -0.078125 C 17.082031 -0.0234375 16.972656 0 16.828125 0 L 13.578125 0 C 13.410156 0 13.285156 -0.0234375 13.203125 -0.078125 C 13.128906 -0.140625 13.078125 -0.25 13.046875 -0.40625 L 10.65625 -10 L 10.5 -10 L 8.109375 -0.40625 C 8.078125 -0.25 8.019531 -0.140625 7.9375 -0.078125 C 7.863281 -0.0234375 7.742188 0 7.578125 0 Z M 4.328125 0 "/></g></g><g style="fill:#38b6ff;fill-opacity:1;"><g transform="translate(252.071076, 214.072575)"><path style="stroke:none" d="M 15 -0.578125 C 15.03125 -0.523438 15.046875 -0.457031 15.046875 -0.375 C 15.046875 -0.125 14.878906 0 14.546875 0 L 12.28125 0 C 12.113281 0 11.988281 -0.0234375 11.90625 -0.078125 C 11.820312 -0.140625 11.75 -0.242188 11.6875 -0.390625 L 10.625 -3.09375 L 4.1875 -3.09375 L 3.140625 -0.390625 C 3.078125 -0.242188 3 -0.140625 2.90625 -0.078125 C 2.820312 -0.0234375 2.710938 0 2.578125 0 L 0.265625 0 C -0.0664062 0 -0.234375 -0.125 -0.234375 -0.375 C -0.234375 -0.457031 -0.210938 -0.539062 -0.171875 -0.625 L 5.46875 -14.734375 C 5.570312 -14.992188 5.765625 -15.125 6.046875 -15.125 L 8.765625 -15.125 C 8.929688 -15.125 9.054688 -15.09375 9.140625 -15.03125 C 9.222656 -14.976562 9.296875 -14.878906 9.359375 -14.734375 Z M 7.34375 -11.46875 L 5.1875 -5.90625 L 9.640625 -5.90625 L 7.484375 -11.46875 Z M 7.34375 -11.46875 "/></g></g><g style="fill:#38b6ff;fill-opacity:1;"><g transform="translate(269.891025, 214.072575)"><path style="stroke:none" d="M 14.734375 -0.671875 C 14.828125 -0.566406 14.875 -0.457031 14.875 -0.34375 C 14.875 -0.238281 14.835938 -0.15625 14.765625 -0.09375 C 14.703125 -0.03125 14.609375 0 14.484375 0 L 11.671875 0 C 11.515625 0 11.382812 -0.0234375 11.28125 -0.078125 C 11.175781 -0.128906 11.078125 -0.210938 10.984375 -0.328125 L 6.5 -5.71875 L 5.1875 -5.71875 L 5.1875 -0.4375 C 5.1875 -0.144531 5.039062 0 4.75 0 L 2.265625 0 C 1.984375 0 1.84375 -0.144531 1.84375 -0.4375 L 1.84375 -14.6875 C 1.84375 -14.976562 1.984375 -15.125 2.265625 -15.125 L 11.078125 -15.125 C 12.347656 -15.125 13.265625 -14.835938 13.828125 -14.265625 C 14.398438 -13.703125 14.6875 -12.785156 14.6875 -11.515625 L 14.6875 -9.359375 C 14.6875 -8.085938 14.398438 -7.160156 13.828125 -6.578125 C 13.265625 -6.003906 12.347656 -5.71875 11.078125 -5.71875 L 10.5 -5.71875 L 10.5 -5.640625 Z M 5.1875 -12.375 L 5.1875 -8.3125 L 10.046875 -8.3125 C 10.523438 -8.3125 10.859375 -8.410156 11.046875 -8.609375 C 11.242188 -8.804688 11.34375 -9.140625 11.34375 -9.609375 L 11.34375 -11.078125 C 11.34375 -11.554688 11.242188 -11.890625 11.046875 -12.078125 C 10.859375 -12.273438 10.523438 -12.375 10.046875 -12.375 Z M 5.1875 -12.375 "/></g></g><g style="fill:#38b6ff;fill-opacity:1;"><g transform="translate(288.942037, 214.072575)"><path style="stroke:none" d="M 12.96875 -2.8125 C 13.25 -2.8125 13.390625 -2.664062 13.390625 -2.375 L 13.390625 -0.4375 C 13.390625 -0.144531 13.25 0 12.96875 0 L 2.265625 0 C 1.984375 0 1.84375 -0.144531 1.84375 -0.4375 L 1.84375 -14.6875 C 1.84375 -14.976562 1.984375 -15.125 2.265625 -15.125 L 12.75 -15.125 C 13.039062 -15.125 13.1875 -14.976562 13.1875 -14.6875 L 13.1875 -12.75 C 13.1875 -12.457031 13.039062 -12.3125 12.75 -12.3125 L 5.1875 -12.3125 L 5.1875 -8.96875 L 10.484375 -8.96875 C 10.765625 -8.96875 10.90625 -8.820312 10.90625 -8.53125 L 10.90625 -6.703125 C 10.90625 -6.410156 10.765625 -6.265625 10.484375 -6.265625 L 5.1875 -6.265625 L 5.1875 -2.8125 Z M 12.96875 -2.8125 "/></g></g></g></svg>